<ttFont>
<head>
    <!-- Most of this table will be recalculated by the compiler -->
    <tableVersion value="1.0"/>
    <fontRevision value="1.0"/>
    <checkSumAdjustment value="0xd479e3dc"/>
    <magicNumber value="0x5f0f3cf5"/>
    <flags value="00000000 00000011"/>
    <unitsPerEm value="1000"/>
    <created value="Sat Jul 13 05:34:46 2024"/>
    <modified value="Sat Jul 13 05:34:46 2024"/>
    <xMin value="0"/>
    <yMin value="-130"/>
    <xMax value="559"/>
    <yMax value="790"/>
    <macStyle value="00000000 00000000"/>
    <lowestRecPPEM value="3"/>
    <fontDirectionHint value="2"/>
    <indexToLocFormat value="0"/>
    <glyphDataFormat value="1"/>
  </head>
              <CharString index="0">
                1 blend
                hlineto
              </CharString>
              <CharString index="1">
                2 blend
                rmoveto
              </CharString>
              <CharString index="2">
                3 blend
                hlineto
              </CharString>
              <CharString index="3">
                8 blend
                hvcurveto
              </CharString>
              <CharString index="4">
                2 blend
                rlineto
              </CharString>
              <CharString index="5">
                4 blend
                rlineto
              </CharString>
              <CharString index="6">
                0 2 blend
                rmoveto
              </CharString>
              <CharString index="7">
                5 blend
                hvcurveto
              </CharString>
              <CharString index="8">
                1 blend
                hmoveto
              </CharString>
              <CharString index="9">
                4 blend
                vhcurveto
              </CharString>
              <CharString index="10">
                0 1 blend
                hlineto
              </CharString>
              <CharString index="11">
                -30 -30 -69 callsubr
              </CharString>
              <CharString index="12">
                -84 callsubr
                rmoveto
              </CharString>
              <CharString index="13">
                0 2 blend
                rlineto
              </CharString>
              <CharString index="14">
                5 blend
                hhcurveto
                -11</CharString>
              <CharString index="15">
                -91 callsubr
                20</CharString>
              <CharString index="16">
                60 60 -30 -30 -90 callsubr
              </CharString>
              <CharString index="17">
                -99 callsubr
                -89 callsubr
              </CharString>
              <CharString index="18">
                40 700 -40 0 280 100 0 100 0 0 -280 -100 -105 callsubr
              </CharString>
              <CharString index="19">
                3 blend
                vlineto
                -144 64 -48 108</CharString>
              <CharString index="20">
                78 248 247</CharString>
              <CharString index="21">
                0 -100 0 2 blend
                rlineto
              </CharString>
              <CharString index="22">
                0 -280 -112</CharString>
              <CharString index="23">
                0 100 0 2 blend
              </CharString>
              <CharString index="24">
                -100 0 1 blend
                vmoveto
              </CharString>
              <CharString index="25">
                260 36 -260</CharString>
              <CharString index="26">
                350 630 35 -215 -99 callsubr
                44 24 276 87 -107 callsubr
                -94 132 -33 47 -13 16 -22 0 -41 61 23 -34 79 -94 -54 24 20 16 8 -1 -35 -26 20 10 22 9 -16 -46 -14 -2 0 2 8 blend
                rlinecurve
                -19 2 -171 -107 -107 callsubr
                -153 -195 -450 -183 156 10 -109 84 -106 callsubr
                -89 callsubr
                20 -40 0 230 44 -71 callsubr
                400 -15 -68 -77 callsubr
                176 -90 -142 28 -42 -13 10 83 -10 -10 84 13 -10 78 12 -28 42 13 10 86 -10 -176 90 142 -104 callsubr
                -100 -40 90 -400 15 68 0 -152 -76 390 28 -125 -78 callsubr
                53 -51 3 26 36 0 -28 12 0 46 22 0 43 48 -3 -36 -26 0 -28 24 -215 -54 54 -104 callsubr
                -90 -390 -17 112 -107 callsubr
              </CharString>
              <CharString index="27">
                -107 callsubr
                -121 -75 -74 callsubr
                -118 118 -137 -75 75 -20 -36 20 20 -13 -20 20 -15 -20 137 75 -75 -20 -36 20 217 118 -118 -104 callsubr
              </CharString>
              <CharString index="28">
                70 67 -41 100 94 -39 -68 callsubr
                -170 -61 80 0 -280 -111 170 11 -30 -76 callsubr
                -106 94</CharString>
              <CharString index="29">
                3 blend
                hlineto
                160 63 121 146 148 -63 120 -160 215</CharString>
              <CharString index="30">
                -107 callsubr
                119 55 -95 -133 -133 -55 -94 -119</CharString>
              <CharString index="31">
                3 blend
                vlineto
                -122 -50 -34 -81 -81 -51 34 122</CharString>
              <CharString index="32">
                0 -356 0 0 236 0 0 -354 0</CharString>
              <CharString index="33">
                -95 -263 -264 75 -98 121 -217</CharString>
              <CharString index="34">
                -1 -1 1 -0.28877 0</CharString>
              <CharString index="35">
                20 20 146 -20 20 143 -20</CharString>
              <CharString index="36">
                0 -212 -35 -106 callsubr
                100</CharString>
              <CharString index="37">
                0 0 0 -0.15161</CharString>
              <CharString index="38">
                -99 callsubr
                40 700 -40 0</CharString>
              <CharString index="39">
                4 blend
                hvcurveto
                518 -40 -518</CharString>
              <CharString index="40">
                100 180 -100 0 -140 0</CharString>
              <CharString index="41">
                -20 -25.7662 -36 20</CharString>
        <CharString name=".notdef">
        </CharString>
        <CharString name="A">
          20 30 -30 0 -99 callsubr
          40 7 220 63 -107 callsubr
          140 700 375 -56 -169 -84 callsubr
          rlineto
          -35 -7 -195 -43 -107 callsubr
          -90 -536 -235 96 79 60 -144 -60 -106 callsubr
          250 36 -250 450 220 -190 -6 174 16 -450 -220 190 -105 callsubr
          257 -200 585 23 -275 -54 -130 44 -106 callsubr
          44 9 296 121 -107 callsubr
          -145 700 -375 29 151 -84 callsubr
          rlineto
          -39 -9 -281 -121 -107 callsubr
          -17 -39 15 -73 5 3 -221 -3 -106 callsubr
          47 39 -47 3 223 147 -3 221 3 -3 -223 -147 -105 callsubr
        </CharString>
        <CharString name="Aacute">
        </CharString>
        <CharString name="Adieresis">
        </CharString>
        <CharString name="B">
          1 vsindex
          60 60 -21 -96 callsubr
          193 270 110 0 72 100 1 0 -193 -270 -110 -105 callsubr
          20 -367 0 164 230 140 0 -84 -86 -11 -106 callsubr
          130 610 -36 -65 -393 -107 callsubr
          105 49 -64 -86 -90 -52 -57 -112 14 -55 -76 -1 6 -18 -26 4 0 45 57 0 0 34 38 4 4 41 47 1 -3 20 29 -7 -4 37 46 5 -7 60 83 -6 -104 callsubr
          -120 -36 110 -620 29 55 403 0 -145 -202 0 620 14 6 -280 3 blend
          hlineto
          153 60 79 104 90 -50 78 -120 10 7 73 102 -7 3 -7 -11 17 4 11 15 -4 -4 23 32 4 0 25 36 0 0 -4 -5 -20 -4 -12 -17 4 -3 19 26 3 6 5 7 -6 9 blend
          hvcurveto
          20 -11 -40 -22 -30 20 -7 -33 -46 7 -103 callsubr
          89 16 41 73 78 5 -8 -12 -5 10 0 -1 -10 -2 22 31 22 -5 -15 -21 5 0 29 41 0 5 blend
          vvcurveto
          101 -42 82 -161 0 34 47 0 -21 -20 -27 1 0 5 7 0 1 -53 -75 -30 4 blend
          vhcurveto
          -100 -36 110 -570 -14 -5 279 0 -136 -190 0 570 -22 -45 -392 -105 callsubr
          120 34 -61 -86 -86 -49 -63 -105 -1 -65 -91 23 21 -8 -11 -11 0 42 51 1 0 39 45 4 0 35 38 -4 -6 19 26 -4 0 47 58 9 -14 54 76 -8 -104 callsubr
          -110 -570 22 45 392 -107 callsubr
        </CharString>
        <CharString name="C">
          410 264 773 102 -379 13 114 -29 -106 callsubr
          -179 -13 -57 -59 -83 4 85 14 -27 11 13 -130 33 93 -17 29 15 -193 23 162 -93 callsubr
          -39 3 -47 -107 callsubr
          -94 -60 -87 callsubr
          60 75 94 -218 38 168 -138 40 92 20 -34 -20 -20 -143 20 -20 -146 20 138 -40 -92 20 -33 -20 218 -38 -168 -104 callsubr
          11 39 -3 47 -107 callsubr
          82 57 -56 -176 14 192 -22 -162 129 -33 -92 -17 28 15 6 86 13 28 -12 -13 -100 callsubr
          39 5 1 251 136 -1 24 18 -103 callsubr
          191 -17 -71 72 -104 -5 48 -18 -27 -2 4 -130 -67 67 17 42 -28 -193 -107 104 -93 callsubr
          -39 -14 -136 -80 callsubr
          11 39 14 136 -107 callsubr
          105 71 74 194 16 194 106 -103 130 68 -67 18 43 -28 -3 49 -18 27 2 -5 -100 callsubr
        </CharString>
        <CharString name="D">
          60 60 -96 callsubr
          249 131 0 100 0 0 -249 -131 -105 callsubr
          26 -36 -6 207 143 0 -218 -101 callsubr
          121 309 -39 -168 -107 callsubr
          113 81 -65 -247 -248 -81 -68 -113 200 -57 -150 117 -61 -71 -20 23 -72 callsubr
          -117 61 71 -20 24 20 -200 57 150 -104 callsubr
          -121 -36 121 -309 31 176 0 -218 0 309 -23 -132 -105 callsubr
          138 98 88 264 263 -98 85 -138 200 101 -101 115 53 -53 20 43 -27 -20 8 27 -20 6 27 -115 -53 53 20 43 -27 -200 -101 101 -104 callsubr
          -121 -309 31 124 -107 callsubr
        </CharString>
        <CharString name="E">
          1 vsindex
          60 60 -14.31456 -20 -40 -69 callsubr
          178.932 250 130 0 71.5728 100 0 0 -178.932 -250 -130 -105 callsubr
          20 -36 0 50.10097 70 0 0 -167.48035 -234 -101 callsubr
          -82 callsubr
          540 128.83104 180 -55 0 167.48035 234 0 -540 -128.83104 -180 55 -105 callsubr
          -700 0 -71.5728 -83 callsubr
          260 36 -260 540 128.83104 180 -55 0 167.48035 234 0 -540 -128.83104 -180 55 -105 callsubr
          0 298 0 0.2136 0 0 0 -204.48035 -253 -101 callsubr
          240 36 -240 480 119 166 -50 0 146 134 0 -480 -119 -166 50 -105 callsubr
        </CharString>
        <CharString name="F">
          1 vsindex
          60 60 -14 -96 callsubr
          179 280 100 0 72 100 0 0 -179 -280 -100 -105 callsubr
          20 -36 0 50 80 -10 0 -168 -214 -20 2 blend
          rmoveto
          -82 callsubr
          580 129 140 -55 0 168 214 20 -580 -129 -140 55 -105 callsubr
          -386 -20 -89 -139 -20 1 blend
          vmoveto
          240 36 -240 580 119 146 -155 0 146 174 20 -580 -119 -146 155 -105 callsubr
        </CharString>
        <CharString name="G">
          1 vsindex
          250 300 220 82 170 0 0 -24 5 10 -106 callsubr
          159 -84 600 25 8 -500 0 24 -5 -10 2 blend
          hlineto
          9 9 66 91 91 1 blend
          -216 rlineto
          28 -9 80.3677 85 139 -107 callsubr
          0 335 0 -0.3677 0 0 -5 104 95 -5 -103 callsubr
          -196 -600 -171 -184 270 -107 callsubr
          160 -51 603 5.31882 -48 -449 -2 -36.72157 -1 6 -106 callsubr
          -199 -13 -57 -59 -83 24 75.15144 105 -6 -27 7.873 11 13 -130 19.32466 27 99 -17 20.75612 29 5 -193 6.44156 9 176 -93 callsubr
          -89 2.14719 3 3 -107 callsubr
          -94 -62 -87 callsubr
          71 75 94 -218 27.19766 38 168 -136 30.06058 42 90 20 -24.33475 -34 -20 -20 -102.3491 -143 20 -20 -104.50212 -146 20 127 -33.63922 -47 -85 20 -23.61319 -33 -20 218 -19.32466 -27 -179 -104 callsubr
          11 89 -2.14719 -3 -3 -107 callsubr
          82 0 48 -56 14 -176 39 5 192 -20.2524 -18 -166 0 -0.38681 0 0 138 -13 -22.6612 -102.3388 -17 19 32.75406 10.24594 28 -5 -12.3388 -12.6612 6 93 101.24594 -2.24594 1 158 221 166 -1 17 4 38 8 blend
          rcurveline
          191 -17 -62 72 -104 -5 -2 48 -18 -27 15 -2 4 -139 -66.75343 -71 71 17 36.5728 42 -28 -193 -73 -102 99 -93 callsubr
          -89 -10.02019 -14 -86 -107 callsubr
          -121 -84 -74 callsubr
          -84.4559 -118 118 -128 -47.23805 -66 66 -66 callsubr
          20 -9.30446 -13 -20 20 -10.73592 -15 -20 137 53.6796 75 -75 -66 callsubr
          217 84.4559 118 -118 -104 callsubr
          11 89 10.02019 14 -94 1 blend
          hlineto
          105 58 74 214 6 194 72.28853 101 -98 133 54.39532 76 -65 18 30.7763 43 -18 -23 20.75612 29 2 37 8.58873 12 -15 -100 callsubr
        </CharString>
        <CharString name="H">
          -92 callsubr
          -366 3 90 57 0 -174 10 -106 callsubr
          300 36 -300 561 170 -131 0 224 0 -561 -170 131 -105 callsubr
          280 -370 557 -20 -167 0 -150 -10 -106 callsubr
          -89 callsubr
        </CharString>
        <CharString name="I">
          140 310 -20 -130 -90 callsubr
          -80 -36 -250 -10 100 0 -244 30 -106 callsubr
          200 36 -200 490 300 -90 0 244 -30 -490 -300 90 -105 callsubr
          -700 0 -83 callsubr
          200 36 -200 490 300 -90 0 244 -30 -490 -300 90 -105 callsubr
        </CharString>
        <CharString name="I.narrow">
          -91 callsubr
        </CharString>
        <CharString name="IJ">
          100 320 60 250 112 113 57 -30 2 blend
          rmoveto
          380 -40 -380 -113 43 30 -85 callsubr
          113 -43 -30 3 blend
          vlineto
          172 -330 298 175 -72 -113 -57 30 -106 callsubr
          106 65 48 144 183 145 -81 117 33 6 -79 callsubr
          29 -117 43 70 -64 23 31 -183 59 117 -182 61 114 -116 44 69 51.97546 -23 -36.90138 78.02454 -94 -44.09862 8 blend
          vhcurveto
          58 -40 -58 -27 -19 26 -85 callsubr
          27 29 -36 -88 callsubr
          -73.03868 -64 23.52126 117 31 8 -56.96132 -57 37.47874 181 144 -80 -98 callsubr
        </CharString>
        <CharString name="J">
          232 238 145 -102 1 blend
          -10 rmoveto
          106 65 48 144 108.7628 145 -43.7628 71.2372 33 28.7628 60.53847 67 -38.53847 79.46153 94 -31.46153 -68 callsubr
          -140 -61 70 0 -280 -111 140 11 -40 -76 callsubr
          -84.9855 94 35.9855 -71.20544 43 47.20544 -55.0145 23 34.0145 -108.79456 59 79.79456 -132.18182 61 101.18182 -85.81818 44 61.81818 43.01695 -23 -28.01695 56.98305 -94 -5.98305 8 blend
          vhcurveto
          98 -40 -98 -50 38 -17 0 -280 -82 50 12 -45 -88 callsubr
          -52.45589 -94 17.45589 86.72974 31 3.27026 -47.54411 -67 48.54411 131.27026 144 -85.27026 -98 callsubr
        </CharString>
        <CharString name="J.narrow">
          122 163 104 -164 1 blend
          -10 rmoveto
          125 76 58 174 164 126 -44 106 75 -24 60 57 -31 70 64 -9 4 blend
          hvcurveto
          478 -40 -478 -130 -21 40 0 -282 -109 130 87 -76 3 blend
          vlineto
          -154 -61 -42 -100 -18 -17 2 4 -15 -74 59 43 -106 23 78 -56 2 43 -164 22 136 -38 -19.88889 54.88889 -34 -17.11111 19.11111 4 1 -6 6 6 -8 -31 -23 17 9 blend
          vhcurveto
          -12 -35 0 -38 6 -2 -232 -23 -103 callsubr
          -5 19 21 -2 22 -5 -15 17 31 37 -35 34 45 -45 -3 -8 10 38 52 -54 5 blend
          hhcurveto
        </CharString>
        <CharString name="K">
          -91 callsubr
          14 -366 0 280 -30 -39 -122 39 -106 callsubr
          71 20 -33 106 -107 callsubr
          213 -334 416 -115 -248 39 22 -39 -103 callsubr
          49 34 302 127 -107 callsubr
          -247 370 -6 0 -443 85 136 -45 163 45 -1 -267 -35 3 -81 -3 -102 callsubr
          -80 -26 28 -86 -107 callsubr
          50 -17 20 -7 73 2 -9 -2 -106 callsubr
          27 -15 248 362 14 220 -60 4 -93 -34 446 -56 -29 36 120 -6 -102 callsubr
          -46 -20 -286 -120 -107 callsubr
        </CharString>
        <CharString name="L">
          -92 callsubr
          -700 0 80 -10 0 -100 -101 callsubr
          -82 callsubr
          530 140 -30 0 214 30 -530 -140 30 -105 callsubr
        </CharString>
        <CharString name="M">
          60 60 -96 callsubr
          210 70 0 100 0 0 -210 -70 -105 callsubr
          410 -700 624 362 -218 0 -100 -101 callsubr
          700 -40 -700 0 100 0 0 -210 -70 0 -100 0 3 blend
          vlineto
          23 658 -5 113 -15 6 -229 -31 -106 callsubr
          -23 42 -170 -358 5 -113 15 -6 329 31 -331 21 186 -81 109 77 -102 callsubr
          17 31 9 -7 -107 callsubr
          -177 358 -22 -49 175 -352 -324 28 179 81 -109 -77 4 -114 16 13 -322 -38 304 55 -216 -71 41 113 6 blend
          rlineto
          25 7 59 43 -107 callsubr
        </CharString>
        <CharString name="N">
          60 60 -30 -30 -99 callsubr
          35 700 -35 5 215 65 0 100 0 -5 -215 -65 -105 callsubr
          16 -54 7 54 127 18 -226 -84 -106 callsubr
          289 -646 19 54 -289 646 588 81 -298 -18 126 84 0 161 -64 -17 226 83 -590 -81 300 17 -126 -83 6 blend
          rlineto
          270 -700 590 -80 -235 0 -100 -101 callsubr
          35 700 -35 5 215 65 0 100 0 -5 -215 -65 -105 callsubr
        </CharString>
        <CharString name="O">
          246 384 163 -203 1 blend
          -10 rmoveto
          11 49 14 126 -107 callsubr
          120 76 98 264 263 -76 95 -120 218 119 -119 137 75 -75 20 36 -20 -20 15 20 -20 13 20 -137 -75 75 20 36 -20 -218 -119 119 -104 callsubr
          -11 -49 -14 -126 -80 callsubr
          0 36 0 9 45 0 228 -101 callsubr
          -94 -60 -87 callsubr
          60 75 94 -218 38 168 -138 40 92 20 -34 -20 -20 -143 20 -20 -146 20 138 -40 -92 20 -33 -20 218 -38 -168 -104 callsubr
          11 49 -3 37 -107 callsubr
          95 59 -75 -247 -248 -59 -78 -95 218 -39 -168 139 -39 -93 -20 33 -72 callsubr
          -139 39 93 -20 34 20 -218 39 168 -104 callsubr
        </CharString>
        <CharString name="P">
          -92 callsubr
          -40 0 230 0 -71 callsubr
          390 -25 -48 -77 callsubr
          186 -90 -152 32 -42 -17 10 82.97183 -9.97183 -10 84.02817 12.97183 -10 78.32076 11.67924 -32 42 17 10 85.67924 -9.67924 -186 90 152 -104 callsubr
          -100 -40 90 -390 25 48 0 -213 -35 390 8 -105 -78 callsubr
          73 -71 3 16 46 0 -17.73203 10.73203 0 66.73203 22.26797 0 62.30247 21.69753 -3 -16 -46 0 -17.30247 10.30247 -215 -72 72 -104 callsubr
          -90 -390 -9 104 -107 callsubr
        </CharString>
        <CharString name="Q">
          330 378 80 -228 1 blend
          -130 rmoveto
          44 0 266 110 -107 callsubr
          -99 143 -32 -18 0 -11 -30 0 157 0 0 -251 -137 0 18 0 -102 callsubr
        </CharString>
        <CharString name="R">
          -81 callsubr
        </CharString>
        <CharString name="R.alt">
          -81 callsubr
        </CharString>
        <CharString name="S">
          2 vsindex
          349 157 731 329 -219 69.90141 34 96 -34 22.23555 -106 callsubr
          -1 81 -49 55 -82 65 -50 40 1 1 -1 0.15161 45 128 -45 29.6887 -31 -61 16 -14.82312 -8 3 11 1.70844 -212 -65 -9 1.49152 -57 -54 55 -8.34697 -164 -2 38 -6.74109 -34 -36 34 -4.9411 8 blend
          rcurveline
          -62 49 -21 47 52 -147 -13 86 7.0727 -43 -43 40 -6.65053 -118 15 113 18.1315 -19 -46 21 -10.31165 54 -42 -54 -19.92839 5 blend
          vvcurveto
          83 44 44 83 14 -72 -14 -18.3863 69 -31 -58 -15.72575 13 -40 -13 -14.14648 185 -34 -145 -27.33028 -98 callsubr
          8 63 44 89 13.53165 -107 callsubr
          49 40 -9 -24 40 161 33 -94 -2.55385 95 41 -29 7.70268 -34 0 34 4.21446 -30 14 30 7.57117 63 20 -14 3.77553 -100 callsubr
          17 37 5 19 -6 4.49112 -4 195 4 54.21736 -103 callsubr
          19 -37 -37 15 -62 39 -5 -40 -6.3329 -75 -26 32 -3.19858 -123 -71 49 -13.48987 27 1 -26 -2.94553 -139 4 100 13.49054 5 blend
          hhcurveto
          -7 -61 -37 -25 -3.6745 -107 callsubr
          -118 -58 -66 -101 0 -169 -120 -25 -36.15671 -75 -59 30 -12.38612 0 -39 24 -6.86145 -23 -75 -1 -21.69579 -70 callsubr
          5 blend
          hvcurveto
          0 -81 44 -57 82 -65 50 -40 -70 callsubr
          -36 -105 36 -24.46725 45 81 -22 19.74135 6 -4 -11 -1.98393 202 51 -15 12.19203 57 52 -52 7.40297 164 1 -23 -12.18988 34 35 -34 5.43027 8 blend
          rcurveline
          71 -57 18 -36 -64 159 -4 -104 -13.98608 51 50 -47 7.4714 101 -5 -91 -12.65106 16 38 -20 8.62357 -49 51 49 19.9691 5 blend
          vvcurveto
          -62 -44 -54 -83 -50 54 50 21.07109 -78 30 67 16.56522 -3 50 3 14.14648 -245 34 205 34.76341 -98 callsubr
          -8 -63 -43 -78 -11.8934 -107 callsubr
          -53 -43 10 26 -43 -124 -42 46 -5.90268 -97 -46 25 -9.59871 32 -2 -32 -4.51352 29 -13 -29 -7.17595 -63 -25 7 -5.96666 -100 callsubr
          -17 -37 0 -19 1 -5.10217 4 -198 -4 -55.04384 -103 callsubr
          -20 40 39 -17 67 -39 5 39 6.2843 75 31 -20 6.06728 122 83 -47 16.96371 -24 2 24 3.44896 100 -1 -49 -6.27899 5 blend
          hhcurveto
          7 61 37 42 5.78055 -107 callsubr
          118 59 72 95 -1 229 164 -65 37.12886 83 14 -25 0.75981 0 48 -18 11 32 48 -14 11.48944 1 1 -1 0.15161 5 blend
          hvcurveto
        </CharString>
        <CharString name="S.closed">
          3 vsindex
          358 157 737 368 -180 -22.29459 11.4528 34 96 -34 11.79451 2.65941 -106 callsubr
          -1 81 -46 62 -85 58 -58 40 1 1 -1 0.28877 0.01683 45 119 -66 34.16841 -7.8 -34 -65 50 -26.17567 -1.54666 -15 -18 24 6.48523 29.11818 -209 -83 36 -10.26065 -2.48306 -50 -48 46 -4.69652 -2.98738 -176 -11 -87 80.20383 -30.01756 -34 -36 36 -3.369 -1.87216 8 blend
          rcurveline
          -66 45 -17 51 63 -143 -15 138 -31.60442 28.97484 -40 -40 36 -3.52135 -3.82814 -112 10 118 0.25461 0.54572 -22 -49 24 -6.24628 -3.45816 43 -53 -43 -8.37282 -6.45656 5 blend
          vvcurveto
          62 32 54 79 35 -51 -35 -8.37698 -3.06715 71 -18 -71 1.2856 -1 3 -50 -3 -6.83139 -1.94861 189 -25 -170 0.31526 -0.34122 -98 callsubr
          5 126 23 93 -36.10632 15.57735 -107 callsubr
          96 19 -59 -135 0 159 -42 -96 12.62415 -56.23752 72 -8 -51 1.91591 -8.98091 4 43 5 5.19882 11.09567 -3 98 -8 13.82176 28.96066 12 0 -12 0.40926 -0.26755 -100 callsubr
          39 0 0 221 76 -18.91333 55.7757 0 0 0 0.6738 -0.38344 -103 callsubr
          174 0 -39 58 -114 -20 48 49 -0.73352 -49.93373 -9 0 9 0.054 -0.2495 -61 -52 9 26.95068 -1.54062 17 40 -28 -16.773 12.64397 -177 -111 48 -24.1535 -3.07494 5 blend
          hhcurveto
          -7 -121 -16 -11 74.72604 -0.44324 -107 callsubr
          -105 -44 -72 -95 1 -182 -120 10 -38.58452 -3.32526 -79 -78 39 -8.96208 -2.46606 6 -30 15 -3.45882 -0.38173 -29 -84 8 -10.78777 -2.85182 -73 callsubr
          5 blend
          hvcurveto
          1 -81 40 -64 85 -58 58 -40 -73 callsubr
          -36 -98 50 -26.0849 -14.14938 39 87 -18 10.52098 3.02344 12 4 -13 -4.19305 -4.5906 199 68 -32 8.39786 1.32254 51 47 -44 2.13565 0.80103 176 9 84 -85.39963 36.33113 34 35 -33 2.77138 -1.23734 8 blend
          rcurveline
          74 -51 15 -43 -63 156 -1 -159 28.55887 -35.8711 45 46 -41 3.65569 3.90088 104 -1 -101 -0.03444 0.01007 23 43 -28 7.11676 1.65509 -50 50 50 8.62141 13.67339 5 blend
          vvcurveto
          -62 -37 -54 -71 -50 54 50 8.96626 0.93427 -65 21 66 -1.09013 0.4896 -3 50 3 6.83139 5.48741 -257 39 217 1.73631 1.08038 -98 callsubr
          -8 0 -83 -26 -227 90.08673 -47.60095 0 0 0 0 0.46121 -103 callsubr
          -104 -20 66 128 0 -107 47 97 -14.12784 12.96083 -184 9 151 -17.89468 35.20593 -34 -40 33 -18.60399 -8.85864 33 -102 -12 -13.5339 -25.60909 0 0 0 -0.96652 -0.11095 -100 callsubr
          -40 0 -240 -66 -8.18893 -5.89154 -107 callsubr
          -186 0 62 -46 92 24 -37 -93 45 20.73647 4 0 -4 1.78328 -0.95058 83 58 -30 -62.64705 2.17653 -21 -37 50 -21.73412 7.28648 217 108 -145 72.49706 3 5 blend
          hhcurveto
          7 81 24 269 -144.39244 0.66486 -107 callsubr
          105 53 72 95 -1 242 137 -145 85.28868 3.7952 69 51 -85 32.85559 1.41281 0 46 -16 5.7626 1.27429 32 50 -16 6.10808 1.3851 1 1 -1 -0.6738 0.03645 -100 callsubr
        </CharString>
        <CharString name="T">
          200 350 -50 -80 -90 callsubr
          -170 -36 -340 40 70 0 -214 -60 -106 callsubr
          380 36 -380 680 200 -40 0 214 60 -680 -200 40 3 blend
          hlineto
        </CharString>
        <CharString name="U">
          232 358 145 -72 1 blend
          -10 rmoveto
          106 65 48 144 183 145 -81.42715 117 33 6.42715 -79 callsubr
          29.11732 -117 43 69.51163 -64 23 30.88268 -183 59 117.48837 -182 61 114.48837 -116 44 68.51163 64 -23 -30.88268 106 -94 -29.11732 8 blend
          vhcurveto
          518 -40 -518 -170 -11 30 -85 callsubr
          170 61 -80 -88 callsubr
          -100 -94 39 117 31 8.45772 -70 -67 41 181 144 -80.45772 -98 callsubr
        </CharString>
        <CharString name="V">
          378 700 752 352 -182 -95 callsubr
          -41 -5 -209 -75 -107 callsubr
          -130 -700 -371 46 125 -86 callsubr
          36 9 184 51 -107 callsubr
          -178 700 -356 -88 192 -95 callsubr
          -45 -9 -295 -121 -107 callsubr
          135 -700 373 -19 -119 -86 callsubr
          40 9 280 121 -107 callsubr
          40 39 -19 50 -21 -3 221 3 2 blend
          rmoveto
          -70 -39 70 10 -200 -160 3 -221 -3 -10 200 160 -105 callsubr
        </CharString>
        <CharString name="W">
          500 700 824 377 -352 -95 callsubr
          -42 1 -218 -119 -107 callsubr
          -87 -638 -210 39 184 0 108 -94 callsubr
          6 6 36 -24 -107 callsubr
          -94 638 -211 44 185 0 -108 -94 callsubr
          -38 12 -167 -82 -107 callsubr
          -95 -638 -196 50 173 -10 108 10 -103 callsubr
          8 9 34 -27 -107 callsubr
          -93 638 -217 39 198 10 -108 -10 -103 callsubr
          -43 0 -246 -144 -107 callsubr
          107 -700 226 -5 -172 -86 callsubr
          45 -27 243 181 -107 callsubr
          89 639 -10 0 95 -639 204 -43 -180 17 -230 43 -6 -32 -16 -1 0 1 220 -38 -190 -16 230 -44 6 blend
          rlineto
          45 -28 272 198 -107 callsubr
        </CharString>
        <CharString name="X">
          337 583 23 -173 -99 callsubr
          45 15 335 95 -107 callsubr
          -169 364 -141 336 -291 -70 79 5 110 -1 -269 30 81 -5 -10 1 4 blend
          rlineto
          -45 -15 -335 -95 1 blend
          hlineto
          160 -363 285 78 -94 14 -87 10 -103 callsubr
          -167 -337 -286 -71 95 -16 -13 -8 -106 callsubr
          40 0 142 332 13 4 155 364 8 190 212 2 0 -2 279 -57 -161 19 -20 -10 -1 220 -106 -6 30 -28 292 27 -13 -13 90 38 8 blend
          rlineto
          -40 -10 -190 -210 -107 callsubr
          -130 -337 -16 -6 -287 41 153 5 78 -66 4 -212 89 8 -44 42 -102 callsubr
        </CharString>
        <CharString name="Y">
          400 700 560 330 -100 -95 callsubr
          -41 -9 -189 -111 -107 callsubr
          -154 -490 25 0 -262 -16 127 -10 -110 20 -13 175 93 -29 0 29 -102 callsubr
          -163 490 -263 -8 69 39 110 -49 -106 callsubr
          -47 -3 -302 -78 -107 callsubr
          170 -490 38 0 281 30 -106 -39 -110 49 -15 252 115 29 0 -29 -102 callsubr
          2 44 9 28 -9 -33 26 133 -106 callsubr
          -40 -254 40 0 -280 -100 43 -16 -153 0 280 100 3 blend
          hlineto
        </CharString>
        <CharString name="Z">
          60 36 60 -30 -30 0 214 30 -106 callsubr
          35 -10 285 638 -35 10 0 315 170 -10 -10 -70 640 -55 -230 10 -318 10 0 -315 -170 10 10 70 6 blend
          rlineto
          -285 -10 -640 55 230 -10 -10 -70 -106 callsubr
          320 36 -320 640 260 -60 0 214 30 -640 -260 60 3 blend
          hlineto
          -700 0 -83 callsubr
          320 36 -320 640 260 -60 0 214 30 -640 -260 60 3 blend
          hlineto
        </CharString>
        <CharString name="acute">
          50 730 -20 -30 20 0 100 -101 callsubr
          150 8 40 120 40 0 -8 -94 callsubr
          32 0 88 0 1 blend
          vlineto
          -150 -10 -40 -120 -40 0 -20 -94 callsubr
        </CharString>
        <CharString name="arrowdown">
          137 271 0 79 0 -250 55 -25 -106 callsubr
          29 0 373 -97 callsubr
          6 269 500 66 40 1 blend
          rlineto
          -41 0 -374 -97 callsubr
          -31 -210 0 -168 0 -500 50 -40 -106 callsubr
          52 -190 50 189 0 356 0 0 -236 0 0 354 0 0 236 0 -102 callsubr
        </CharString>
        <CharString name="arrowleft">
          136 371 0 195 -75 0 267 -38 -106 callsubr
          -29 0 -468 95 1 blend
          vlineto
          423 500 -196 425 1 blend
          -6 rlineto
          41 0 469 -95 1 blend
          vlineto
          -364 31 -500 237 -350 0 130 38 -106 callsubr
          -190 -52 189 -50 0 -236 0 -75 callsubr
          -102 callsubr
        </CharString>
        <CharString name="arrowright">
          308 345 625 -71 300 0 -183 38 -106 callsubr
          29 0 468 -95 1 blend
          vlineto
          -298 -625 71 -300 1 blend
          6 rlineto
          -41 0 -469 95 1 blend
          vlineto
          239 -31 625 -112 225 0 -130 -38 -106 callsubr
          190 52 -189 50 0 236 0 0 356 -1 0 -236 0 0 354 1 4 blend
          rlineto
        </CharString>
        <CharString name="arrowup">
          165 409 0 451 0 250 46 -30 2 blend
          rmoveto
          -29 0 -373 -97 callsubr
          -6 -269 -500 -66 -40 1 blend
          rlineto
          41 0 374 -97 callsubr
          31 210 0 168 0 500 -50 40 2 blend
          rmoveto
          -52 190 -50 -189 -75 callsubr
          0 -236 0 -102 callsubr
        </CharString>
        <CharString name="colon">
        </CharString>
        <CharString name="comma">
          111 60 109 -30 -99 callsubr
          120 -50 -120 -67 callsubr
          -100 -180 100 3 blend
          vlineto
          32 -8 -11 20 0 47 0 0 -8 0 0 3 0 0 8 0 4 blend
          -22 -105 12 0 -50 0 0 60 0 2 blend
          -2 rlineto
        </CharString>
        <CharString name="dieresis">
        </CharString>
        <CharString name="dot">
          50 730 0 10 0 0 110 -101 callsubr
          40 60 -40 0 150 0 0 65 0 0 -150 0 3 blend
          hlineto
        </CharString>
        <CharString name="em">
        </CharString>
        <CharString name="nlitest">
          50 vmoveto
          -50 50 vlineto
          5 vsindex
          -50 750 750 750 -750 0 0 -750 -103 callsubr
        </CharString>
        <CharString name="period">
          60 60 -30 -30 -99 callsubr
          50 120 -50 0 140 0 -67 callsubr
          3 blend
          hlineto
        </CharString>
        <CharString name="quotedblbase">
        </CharString>
        <CharString name="quotedblleft">
        </CharString>
        <CharString name="quotedblright">
        </CharString>
        <CharString name="quotesinglbase">
        </CharString>
        <CharString name="semicolon">
        </CharString>
        <CharString name="space">
        </CharString>
        <CharString name="varcotest1">
        </CharString>
        <CharString name="varcotest2">
          7 vsindex
          70 278 0 -241 0 1 blend
          rmoveto
          239 143 0 -97 callsubr
          0 102 70 0 0 0 70 0 0 -102 0 0 -70 0 0 102 -102 callsubr
          284 -175 0 241 0 -143 0 0 2 blend
          -76 -134 vlineto
        </CharString>
</ttFont>
